<?xml version="1.0" encoding="utf-8"?>
<!-- Generator: Adobe Illustrator 17.1.0, SVG Export Plug-In . SVG Version: 6.00 Build 0)  -->
<!DOCTYPE svg PUBLIC "-//W3C//DTD SVG 1.1//EN" "http://www.w3.org/Graphics/SVG/1.1/DTD/svg11.dtd">
<svg version="1.1" xmlns="http://www.w3.org/2000/svg" xmlns:xlink="http://www.w3.org/1999/xlink" x="0px" y="0px"
	 viewBox="0 0 785 809" enable-background="new 0 0 785 809" xml:space="preserve">
<g id="Layer_1">
</g>
<g id="Layer_2">
	<g>
		<path fill="#E6E7E8" stroke="#696C71" stroke-width="4" d="M532.9,427.7l-15.7,0.2c-1.1,0-2,0.9-1.9,2l0.2,12.7l-14.1,0.2
			c-1.1,0-2,0.9-1.9,2l0.2,15.2l-60.7,1c-2.2-7.7-9-13.4-17.2-14.1l-6-36.8c-3.5,1.6-7.4,2.4-11.4,2.5l0,0c-1.1,0-2.1-0.2-3.1-0.3
			l6.4,39.1c-4.4,3.6-7.1,9.1-7,15.2c0.2,10.8,9.1,19.5,19.9,19.3c7.3-0.1,13.6-4.3,16.9-10.2l62.6-1l0.2,15.2c0,1.1,0.9,2,2,2
			l14.1-0.2l0.2,12.8c0,1.1,0.9,1.9,2,1.9l15.6-0.2c1.1,0,2-0.9,1.9-2l-1.1-74.5C534.9,428.5,534,427.6,532.9,427.7z M403.4,348.9
			c18-0.3,32.9,13.5,34.5,31.2l40.4-15.4l15.2-41.6l-19.5-51.2L245,359.2l49.8,75.5l81.6-31.1c-4.1-5.6-6.7-12.4-6.8-19.8
			C369.3,364.8,384.5,349.1,403.4,348.9z M311.5,393.7c-8,3-16.8-0.9-19.9-8.9c-3-7.9,1-16.8,8.9-19.8c7.9-3,16.8,1,19.7,8.9
			C323.3,381.8,319.4,390.7,311.5,393.7z"/>
		<path fill="#E6E7E8" stroke="#DC4C3F" stroke-width="5" stroke-miterlimit="10" d="M243.3,380.3c-1.1-2.8-4.3-4.3-7.1-3.2
			l-15.4,5.9c-2.8,1.1-4.3,4.3-3.2,7.1l19.6,51.5c1.1,2.8,4.3,4.3,7.1,3.2l15.4-5.9c2.8-1.1,4.3-4.3,3.2-7.1L243.3,380.3z"/>
	</g>
	<g>
		<g>
			<path fill="#DC4C3F" d="M378.3,382.2c-0.1-3.4,0.4-6.6,1.6-9.7c1.2-3.1,2.8-5.8,5-8.1c2.2-2.3,4.8-4.1,7.8-5.5
				c3-1.3,6.3-2.1,9.7-2.2c3.4-0.1,6.7,0.4,9.8,1.6c3.1,1.1,5.8,2.8,8.2,5c2.3,2.2,4.2,4.7,5.5,7.7c1.4,3,2.1,6.2,2.2,9.6
				c0.1,3.4-0.4,6.6-1.6,9.7c-1.2,3.1-2.8,5.8-5,8.1c-2.2,2.3-4.8,4.1-7.8,5.5c-3,1.3-6.3,2.1-9.7,2.2c-3.4,0.1-6.7-0.4-9.8-1.6
				c-3.1-1.1-5.8-2.8-8.2-5c-2.3-2.2-4.2-4.7-5.5-7.7C379.1,388.8,378.4,385.6,378.3,382.2z"/>
		</g>
		<g>
			<path fill="#FFFFFF" d="M414.5,388.8c-1.1,1.5-2.6,2.7-4.3,3.6c-1.8,0.9-3.6,1.3-5.5,1.4c-1.8,0.1-3.6-0.2-5.2-0.7
				c-1.6-0.5-3.1-1.3-4.3-2.4c-1.2-1-2.2-2.3-2.9-3.8c-0.7-1.5-1.1-3.2-1.2-5.1c-0.1-1.9,0.2-3.6,0.9-5.1c0.6-1.5,1.5-2.9,2.7-4
				c1.2-1.1,2.5-2,4.1-2.6s3.3-1,5.1-1c1.7-0.1,3.3,0.2,4.7,0.7c1.4,0.5,2.6,1.3,3.6,2.4c1,1.1,1.8,2.3,2.4,3.8
				c0.6,1.5,0.9,3.2,1,5.1l0.1,2.3l-17.1,0.6c0.3,1.4,1,2.5,2,3.3c1,0.8,2.2,1.2,3.7,1.1c1.2,0,2.2-0.3,3-0.9
				c0.8-0.6,1.5-1.3,2.1-2.1L414.5,388.8z M408,378.6c0-1.2-0.5-2.3-1.3-3.1c-0.9-0.8-2-1.2-3.3-1.2c-0.8,0-1.5,0.2-2.1,0.5
				c-0.6,0.3-1.1,0.6-1.6,1c-0.4,0.4-0.8,0.9-1,1.4c-0.2,0.5-0.3,1.1-0.4,1.7L408,378.6z"/>
		</g>
	</g>
	<circle display="none" fill="none" stroke="#000000" stroke-miterlimit="10" cx="392.5" cy="404.5" r="312.5"/>
	<circle fill="#E5E5E5" stroke="#6B6B6B" stroke-width="2" stroke-miterlimit="10" cx="501" cy="117.8" r="28.3"/>
	<polygon fill="#E5E5E5" stroke="#6B6B6B" stroke-width="2" stroke-linejoin="bevel" stroke-miterlimit="10" points="506,122.8 
		514,103.8 495,111.8 488,129.8 	"/>
	<line fill="#E5E5E5" stroke="#6B6B6B" stroke-width="2" stroke-miterlimit="10" x1="495" y1="111.8" x2="506" y2="122.8"/>
	<path fill="#E5E5E5" stroke="#6B6B6B" stroke-width="2" stroke-miterlimit="10" d="M505.9,89.8c0.1-0.3,0.1-0.7,0.1-1
		c0-2.8-2.2-5-5-5c-2.8,0-5,2.2-5,5c0,0.3,0,0.7,0.1,1"/>
	<line fill="#E5E5E5" stroke="#6B6B6B" stroke-width="2" stroke-miterlimit="10" x1="501" y1="89.8" x2="501" y2="94.8"/>
	<line fill="#E5E5E5" stroke="#6B6B6B" stroke-width="2" stroke-miterlimit="10" x1="501" y1="140.8" x2="501" y2="145.8"/>
	<line fill="none" stroke="#6B6B6B" stroke-width="2" stroke-miterlimit="10" x1="529" y1="117.8" x2="524" y2="117.8"/>
	<line fill="#E5E5E5" stroke="#6B6B6B" stroke-width="2" stroke-miterlimit="10" x1="478" y1="117.8" x2="473" y2="117.8"/>
	<g>
		<circle fill="#E5E5E5" stroke="#6B6B6B" stroke-width="2" stroke-miterlimit="10" cx="665.9" cy="245.5" r="6"/>
		<path fill="#E5E5E5" stroke="#6B6B6B" stroke-width="2" stroke-miterlimit="10" d="M686.9,246.3c-0.1-12-9.4-21.7-21-21.7
			s-21,9.7-21,21.7c0,15.5,21,40.3,21,40.3S687,261.8,686.9,246.3z"/>
	</g>
	<g>
		<polygon fill="#E5E5E5" stroke="#6B6B6B" stroke-width="2" stroke-miterlimit="10" points="162.9,149.1 194.9,149.1 194.9,211.1 
			148.9,211.1 148.9,163.1 		"/>
		<polyline fill="#E5E5E5" stroke="#6B6B6B" stroke-width="2" stroke-miterlimit="10" points="148.9,163.1 162.9,163.1 162.9,149.1 
					"/>
		<line fill="#E5E5E5" stroke="#6B6B6B" stroke-width="2" stroke-miterlimit="10" x1="171.9" y1="162.1" x2="185.9" y2="162.1"/>
		<line fill="#E5E5E5" stroke="#6B6B6B" stroke-width="2" stroke-miterlimit="10" x1="157.9" y1="172.1" x2="185.9" y2="172.1"/>
		<line fill="#E5E5E5" stroke="#6B6B6B" stroke-width="2" stroke-miterlimit="10" x1="157.9" y1="182.1" x2="185.9" y2="182.1"/>
		<line fill="#E5E5E5" stroke="#6B6B6B" stroke-width="2" stroke-miterlimit="10" x1="157.9" y1="192.1" x2="185.9" y2="192.1"/>
		<line fill="#E5E5E5" stroke="#6B6B6B" stroke-width="2" stroke-miterlimit="10" x1="157.9" y1="202.1" x2="185.9" y2="202.1"/>
	</g>
	<g>
		<rect x="61.5" y="469.6" fill="none" stroke="#6B6B6B" stroke-width="2" stroke-miterlimit="10" width="54" height="42"/>
		<polyline fill="none" stroke="#6B6B6B" stroke-width="2" stroke-miterlimit="10" points="71.5,466.6 71.5,461.6 123.5,461.6 
			123.5,504.6 118.5,504.6 		"/>
		<line fill="none" stroke="#6B6B6B" stroke-width="2" stroke-miterlimit="10" x1="61.5" y1="477.6" x2="115.5" y2="477.6"/>
		<line fill="none" stroke="#6B6B6B" stroke-width="2" stroke-miterlimit="10" x1="70.5" y1="473.6" x2="66.5" y2="473.6"/>
		<line fill="none" stroke="#6B6B6B" stroke-width="2" stroke-miterlimit="10" x1="78.5" y1="473.6" x2="74.5" y2="473.6"/>
		<line fill="none" stroke="#6B6B6B" stroke-width="2" stroke-miterlimit="10" x1="86.5" y1="473.6" x2="82.5" y2="473.6"/>
	</g>
	<g>
		<polygon fill="#E5E5E5" stroke="#6B6B6B" stroke-width="2" stroke-miterlimit="10" points="284.6,116 301.6,106 301.6,138 
			284.6,128 284.6,138 239.6,138 239.6,106 284.6,106 		"/>
		<line fill="#E5E5E5" stroke="#6B6B6B" stroke-width="2" stroke-miterlimit="10" x1="244.6" y1="114" x2="248.6" y2="114"/>
		<line fill="#E5E5E5" stroke="#6B6B6B" stroke-width="2" stroke-miterlimit="10" x1="252.6" y1="114" x2="256.6" y2="114"/>
		<rect x="245.6" y="122" fill="#E5E5E5" stroke="#6B6B6B" stroke-width="2" stroke-miterlimit="10" width="18" height="10"/>
		<polyline fill="#E5E5E5" stroke="#6B6B6B" stroke-width="2" stroke-miterlimit="10" points="244.6,98 270.6,98 278.6,106 		"/>
	</g>
	<g>
		<polygon fill="none" stroke="#6B6B6B" stroke-width="2" stroke-miterlimit="10" points="112.7,399.6 58.4,399.6 58.4,345.4 
			102.2,345.4 112.7,355.9 		"/>
	</g>
	<rect x="63.7" y="371.6" fill="none" stroke="#6B6B6B" stroke-width="2" stroke-miterlimit="10" width="43.7" height="28"/>
	<line fill="none" stroke="#6B6B6B" stroke-width="2" stroke-miterlimit="10" x1="69.8" y1="378.6" x2="101.3" y2="378.6"/>
	<line fill="none" stroke="#6B6B6B" stroke-width="2" stroke-miterlimit="10" x1="69.8" y1="385.6" x2="101.3" y2="385.6"/>
	<line fill="none" stroke="#6B6B6B" stroke-width="2" stroke-miterlimit="10" x1="69.8" y1="392.6" x2="101.3" y2="392.6"/>
	<rect x="70.7" y="345.4" fill="none" stroke="#6B6B6B" stroke-width="2" stroke-miterlimit="10" width="29.7" height="16.6"/>
	<rect x="90.8" y="348.9" fill="none" stroke="#6B6B6B" stroke-width="2" stroke-miterlimit="10" width="4.4" height="9.6"/>
	<path fill="#E5E5E5" stroke="#6B6B6B" stroke-width="2" stroke-miterlimit="10" d="M92.5,574.1c0,0,11,15,31,15s31-15,31-15
		s-11-15-31-15S92.5,574.1,92.5,574.1z"/>
	<circle fill="#E5E5E5" stroke="#6B6B6B" stroke-width="2" stroke-miterlimit="10" cx="123.5" cy="574.1" r="7"/>
	<g>
		<rect x="687" y="324.5" fill="#E5E5E5" stroke="#6B6B6B" stroke-width="2" stroke-miterlimit="10" width="32" height="62"/>
		<line fill="#E5E5E5" stroke="#6B6B6B" stroke-width="2" stroke-miterlimit="10" x1="699" y1="328.5" x2="707" y2="328.5"/>
		<line fill="#E5E5E5" stroke="#6B6B6B" stroke-width="2" stroke-miterlimit="10" x1="687" y1="374.5" x2="719" y2="374.5"/>
		<line fill="#E5E5E5" stroke="#6B6B6B" stroke-width="2" stroke-miterlimit="10" x1="687" y1="332.5" x2="719" y2="332.5"/>
		
			<circle fill="#E5E5E5" stroke="#6B6B6B" stroke-width="2" stroke-linejoin="bevel" stroke-miterlimit="10" cx="703" cy="380.5" r="2"/>
	</g>
	<g>
		<rect x="693" y="346.5" fill="#E5E5E5" stroke="#6B6B6B" stroke-width="2" stroke-miterlimit="10" width="20" height="14"/>
		<polyline fill="#E5E5E5" stroke="#6B6B6B" stroke-width="2" stroke-miterlimit="10" points="693,358.5 700,351.5 704,356.5 
			706,354.5 712,359.5 		"/>
	</g>
	<circle fill="#E5E5E5" stroke="#6B6B6B" stroke-width="2" stroke-miterlimit="10" cx="710" cy="349.5" r="3"/>
	<g>
		<rect x="380.9" y="72.8" fill="none" stroke="#6B6B6B" stroke-width="2" stroke-miterlimit="10" width="20" height="14"/>
		<polyline fill="none" stroke="#6B6B6B" stroke-width="2" stroke-miterlimit="10" points="380.9,84.8 387.9,77.8 391.9,82.8 
			393.9,80.8 399.9,85.8 		"/>
	</g>
	<circle fill="none" stroke="#6B6B6B" stroke-width="2" stroke-miterlimit="10" cx="397.9" cy="75.8" r="3"/>
	<g>
		<polyline fill="none" stroke="#6B6B6B" stroke-width="2" stroke-miterlimit="10" points="359.9,83.8 390.9,103.2 421.9,83.8 		"/>
		<polyline fill="none" stroke="#6B6B6B" stroke-width="2" stroke-miterlimit="10" points="370.3,79.5 359.9,83.8 359.9,120.8 
			421.9,120.8 421.9,83.8 421.9,83.8 411.6,79.5 		"/>
		<polyline fill="none" stroke="#6B6B6B" stroke-width="2" stroke-miterlimit="10" points="369.9,89.8 369.9,58.8 411.9,58.8 
			411.9,89.8 		"/>
	</g>
	<g>
		<polygon fill="#E5E5E5" stroke="#6B6B6B" stroke-width="2" stroke-miterlimit="10" points="590.4,136 622.4,136 622.4,198 
			576.4,198 576.4,150 		"/>
		<polyline fill="#E5E5E5" stroke="#6B6B6B" stroke-width="2" stroke-miterlimit="10" points="576.4,150 590.4,150 590.4,136 		"/>
	</g>
	<g>
		<rect x="589.4" y="164" fill="#E5E5E5" stroke="#6B6B6B" stroke-width="2" stroke-miterlimit="10" width="20" height="14"/>
		<polyline fill="#E5E5E5" stroke="#6B6B6B" stroke-width="2" stroke-miterlimit="10" points="589.4,176 596.4,169 600.4,174 
			602.4,172 608.4,177 		"/>
	</g>
	<circle fill="#E5E5E5" stroke="#6B6B6B" stroke-width="2" stroke-miterlimit="10" cx="606.4" cy="167" r="3"/>
	<path fill="none" stroke="#6B6B6B" stroke-width="2" stroke-miterlimit="10" d="M102.1,265c0,4.4,3.6,9,8,9h4"/>
	<path fill="none" stroke="#6B6B6B" stroke-width="2" stroke-miterlimit="10" d="M119.1,283h14c4.6,0,8-3.6,8-8s-3.4-8-8-8
		c0-11-9.5-20-20.9-20c-10.1,0-19.3,6.7-21.1,16c0,0-0.8,0-1.7,0c-5.7,0-10.3,4.5-10.3,10c0,5.5,4.3,10,10,10H119.1"/>
	<polyline fill="none" stroke="#6B6B6B" stroke-width="2" stroke-linejoin="bevel" stroke-miterlimit="10" points="111.1,278 
		114.1,274 111.1,270 	"/>
	<path fill="none" stroke="#6B6B6B" stroke-width="2" stroke-miterlimit="10" d="M120.1,265c0-4.4-3.6-9-8-9h-4"/>
	<polyline fill="none" stroke="#6B6B6B" stroke-width="2" stroke-linejoin="bevel" stroke-miterlimit="10" points="111.1,252 
		108.1,256 111.1,260 	"/>
	<g>
		<rect x="78.5" y="485.6" fill="none" stroke="#6B6B6B" stroke-width="2" stroke-miterlimit="10" width="20" height="14"/>
		<polyline fill="none" stroke="#6B6B6B" stroke-width="2" stroke-miterlimit="10" points="78.5,497.6 85.5,490.6 89.5,495.6 
			91.5,493.6 97.5,498.6 		"/>
	</g>
	<circle fill="none" stroke="#6B6B6B" stroke-width="2" stroke-miterlimit="10" cx="95.5" cy="488.6" r="3"/>
	<g>
		<path fill="#E5E5E5" stroke="#6B6B6B" stroke-width="2" stroke-miterlimit="10" d="M720.9,451.7c12.1,12.1,12.1,31.7,0,43.8
			c-12.1,12.1-31.7,12.1-43.8,0c-12.1-12.1-12.1-31.7,0-43.8C689.1,439.6,708.8,439.6,720.9,451.7z"/>
		<polyline fill="#E5E5E5" stroke="#6B6B6B" stroke-width="2" stroke-miterlimit="10" points="699,453.6 699,473.6 708,482.6 		"/>
		<line fill="#E5E5E5" stroke="#6B6B6B" stroke-width="2" stroke-miterlimit="10" x1="671" y1="473.6" x2="675" y2="473.6"/>
		<line fill="#E5E5E5" stroke="#6B6B6B" stroke-width="2" stroke-miterlimit="10" x1="723" y1="473.6" x2="727" y2="473.6"/>
		<line fill="#E5E5E5" stroke="#6B6B6B" stroke-width="2" stroke-miterlimit="10" x1="699" y1="501.6" x2="699" y2="497.6"/>
		<line fill="#E5E5E5" stroke="#6B6B6B" stroke-width="2" stroke-miterlimit="10" x1="699" y1="449.6" x2="699" y2="445.6"/>
	</g>
	<g>
		<rect x="631.2" y="553.1" fill="#E5E5E5" stroke="#6B6B6B" stroke-width="2" stroke-miterlimit="10" width="58" height="24"/>
		<polyline fill="#E5E5E5" stroke="#6B6B6B" stroke-width="2" stroke-miterlimit="10" points="689.2,559.1 693.2,559.1 693.2,571.1 
			689.2,571.1 		"/>
		<rect x="635.2" y="557.1" fill="#E5E5E5" stroke="#6B6B6B" stroke-width="2" stroke-miterlimit="10" width="50" height="16"/>
	</g>
	<polyline fill="#E5E5E5" stroke="#6B6B6B" stroke-width="2" stroke-miterlimit="10" points="652.2,565.1 659.2,562.1 659.2,568.1 
		666.2,565.1 	"/>
	<polygon fill="#E5E5E5" stroke="#6B6B6B" stroke-width="2" stroke-linejoin="bevel" stroke-miterlimit="10" points="512.5,665.2 
		489.5,701.2 503.5,701.2 496.5,727.2 522.5,691.2 508.5,691.2 	"/>
	<rect x="381" y="684.2" fill="#E5E5E5" stroke="#6B6B6B" stroke-width="2" stroke-miterlimit="10" width="46" height="62"/>
	<line fill="#E5E5E5" stroke="#6B6B6B" stroke-width="2" stroke-miterlimit="10" x1="389" y1="746.2" x2="389" y2="685.2"/>
	<line fill="#E5E5E5" stroke="#6B6B6B" stroke-width="2" stroke-miterlimit="10" x1="394" y1="698.2" x2="422" y2="698.2"/>
	<line fill="#E5E5E5" stroke="#6B6B6B" stroke-width="2" stroke-miterlimit="10" x1="394" y1="704.2" x2="422" y2="704.2"/>
	<polygon fill="none" stroke="#6B6B6B" stroke-width="2" stroke-miterlimit="10" points="443,686.2 443,736.2 439,744.2 435,736.2 
		435,686.2 	"/>
	<polyline fill="#E5E5E5" stroke="#6B6B6B" stroke-width="2" stroke-miterlimit="10" points="435,690.2 431,690.2 431,700.2 	"/>
	<g>
		<line fill="#E5E5E5" stroke="#6B6B6B" stroke-width="2" stroke-miterlimit="10" x1="315.9" y1="683.2" x2="287.9" y2="683.2"/>
		<polyline fill="#E5E5E5" stroke="#6B6B6B" stroke-width="2" stroke-miterlimit="10" points="281.9,683.2 270.9,683.2 270.9,731.2 
			332.9,731.2 332.9,683.2 321.9,683.2 		"/>
		<rect x="281.9" y="679.2" fill="#E5E5E5" stroke="#6B6B6B" stroke-width="2" stroke-miterlimit="10" width="6" height="8"/>
		<rect x="315.9" y="679.2" fill="#E5E5E5" stroke="#6B6B6B" stroke-width="2" stroke-miterlimit="10" width="6" height="8"/>
		<rect x="279.9" y="697.2" fill="#E5E5E5" stroke="#6B6B6B" stroke-width="2" stroke-miterlimit="10" width="10" height="10"/>
		<rect x="279.9" y="715.2" fill="#E5E5E5" stroke="#6B6B6B" stroke-width="2" stroke-miterlimit="10" width="10" height="10"/>
		<rect x="313.9" y="697.2" fill="#E5E5E5" stroke="#6B6B6B" stroke-width="2" stroke-miterlimit="10" width="10" height="10"/>
		<rect x="313.9" y="715.2" fill="#E5E5E5" stroke="#6B6B6B" stroke-width="2" stroke-miterlimit="10" width="10" height="10"/>
		<rect x="296.9" y="697.2" fill="#E5E5E5" stroke="#6B6B6B" stroke-width="2" stroke-miterlimit="10" width="10" height="10"/>
		<rect x="296.9" y="715.2" fill="#E5E5E5" stroke="#6B6B6B" stroke-width="2" stroke-miterlimit="10" width="10" height="10"/>
	</g>
	<line fill="#E5E5E5" stroke="#6B6B6B" stroke-width="2" stroke-miterlimit="10" x1="270.9" y1="691.2" x2="332.9" y2="691.2"/>
	<g>
		<rect x="172.9" y="636.2" fill="#E5E5E5" stroke="#6B6B6B" stroke-width="2" stroke-miterlimit="10" width="62" height="36"/>
	</g>
	<line fill="#E5E5E5" stroke="#6B6B6B" stroke-width="2" stroke-miterlimit="10" x1="172.9" y1="648.2" x2="234.9" y2="648.2"/>
	<polyline fill="#E5E5E5" stroke="#6B6B6B" stroke-width="2" stroke-miterlimit="10" points="198.9,648.2 198.9,654.2 208.9,654.2 
		208.9,648.2 	"/>
	<path fill="none" stroke="#6B6B6B" stroke-width="2" stroke-miterlimit="10" d="M194.9,636.2c0,0,0-8,9-8s9,8,9,8"/>
	<path fill="#E5E5E5" stroke="#6B6B6B" stroke-width="2" stroke-miterlimit="10" d="M620.3,623.2c12.1,12.1,12.1,31.7,0,43.8
		c-12.1,12.1-31.7,12.1-43.8,0c-12.1-12.1-12.1-31.7,0-43.8C588.6,611.1,608.2,611.1,620.3,623.2z"/>
</g>
<g id="Twitter_Circular_Button">
	<g>
		<g>
			<path fill="#E5E5E5" stroke="#6B6B6B" stroke-miterlimit="10" d="M611.3,639.4c0-0.3,0-0.6,0-0.9c1.2-0.9,2.3-2.1,3.2-3.4
				c-1.1,0.5-2.4,0.9-3.7,1c1.3-0.8,2.3-2.1,2.8-3.7c-1.2,0.7-2.6,1.3-4.1,1.6c-1.2-1.3-2.8-2.2-4.7-2.2c-3.5-0.1-6.4,2.9-6.4,6.7
				c0,0.5,0.1,1,0.2,1.5c-5.3-0.3-10-3.1-13.2-7.3c-0.5,1-0.9,2.2-0.9,3.4c0,2.4,1.1,4.5,2.8,5.7c-1,0-2-0.4-2.9-0.9
				c0,0,0,0.1,0,0.1c0,3.3,2.2,6.1,5.1,6.7c-0.5,0.2-1.1,0.2-1.7,0.2c-0.4,0-0.8,0-1.2-0.1c0.8,2.7,3.2,4.7,6,4.8
				c-2.2,1.8-4.9,2.9-7.9,2.9c-0.5,0-1,0-1.5-0.1c2.8,1.9,6.2,3.1,9.8,3.1C604.9,658.5,611.3,648.3,611.3,639.4z"/>
		</g>
	</g>
</g>
</svg>
