<?xml version="1.0" encoding="utf-8"?>
<!-- Generator: Adobe Illustrator 17.1.0, SVG Export Plug-In . SVG Version: 6.00 Build 0)  -->
<!DOCTYPE svg PUBLIC "-//W3C//DTD SVG 1.1//EN" "http://www.w3.org/Graphics/SVG/1.1/DTD/svg11.dtd">
<svg version="1.1" xmlns="http://www.w3.org/2000/svg" xmlns:xlink="http://www.w3.org/1999/xlink" x="0px" y="0px" width="3424px"
	 height="2347.8px" viewBox="0 0 3424 2347.8" style="enable-background:new 0 0 3424 2347.8;" xml:space="preserve">
<style type="text/css">
	.st0{fill:#515354;}
	.st1{fill:#DC4C3F;stroke:#DC4C3E;stroke-width:5;stroke-miterlimit:10;}
	.st2{fill:#DC4C3F;}
	.st3{fill:#FFFFFF;}
	.st4{fill:#515354;stroke:#515354;stroke-miterlimit:10;}
	.st5{fill:#515151;}
</style>
<g id="Layer_1">
	<g>
		<g>
			<path class="st0" d="M2940.3,880.7l-32,0.5c-2.2,0-4,1.9-4,4.1l0.4,25.9l-28.7,0.5c-2.2,0-4,1.9-3.9,4.1l0.5,30.9l-123.9,1.9
				c-4.5-15.8-18.3-27.4-35.1-28.8l-12.2-75c-7.1,3.2-15,5-23.2,5.1l-0.1,0c-2.1,0.1-4.2-0.3-6.3-0.5l13,79.7
				c-8.9,7.4-14.6,18.6-14.3,31c0.3,22.1,18.5,39.7,40.5,39.4c15-0.3,27.7-8.7,34.4-20.9l127.6-2l0.5,31c0,2.2,1.9,4,4,4l28.7-0.5
				l0.4,26c0,2.1,1.9,4,4.1,3.9l31.9-0.4c2.2,0,4-1.9,4-4l-2.3-152C2944.4,882.4,2942.5,880.6,2940.3,880.7z M2676.3,720
				c36.8-0.6,67.1,27.5,70.4,63.6l82.4-31.4l31-84.8l-39.8-104.3l-467,178L2454.8,895l166.4-63.4c-8.4-11.4-13.6-25.2-13.8-40.4
				C2606.7,752.5,2637.7,720.6,2676.3,720z M2488.9,811.4c-16.3,6.1-34.3-1.9-40.5-18.1c-6.1-16.2,2-34.2,18.2-40.3
				c16.2-6.1,34.2,2,40.3,18.1C2513,787.3,2504.9,805.3,2488.9,811.4z"/>
			<path class="st1" d="M2349.8,784c-2.2-5.8-8.8-8.7-14.5-6.4l-31.5,12c-5.8,2.2-8.7,8.7-6.5,14.4l40,104.9
				c2.2,5.8,8.7,8.7,14.5,6.5l31.4-12c5.8-2.2,8.7-8.7,6.5-14.5L2349.8,784z"/>
		</g>
		<g>
			<g>
				<path class="st2" d="M2625.1,788.1c-0.2-6.9,0.8-13.5,3.2-19.8c2.4-6.3,5.8-11.8,10.2-16.5c4.4-4.7,9.8-8.4,15.9-11.2
					c6.2-2.8,12.8-4.2,19.8-4.5c7-0.2,13.7,0.8,20,3.2c6.3,2.3,11.9,5.7,16.6,10.1c4.8,4.4,8.5,9.7,11.3,15.7
					c2.8,6.1,4.3,12.6,4.5,19.5c0.2,6.9-0.8,13.5-3.2,19.8c-2.4,6.3-5.8,11.8-10.2,16.5c-4.5,4.7-9.8,8.4-15.9,11.2
					c-6.2,2.7-12.8,4.2-19.8,4.5c-7,0.2-13.7-0.8-20-3.2c-6.4-2.3-11.9-5.7-16.6-10.1c-4.8-4.4-8.5-9.6-11.3-15.7
					C2626.8,801.5,2625.3,795,2625.1,788.1z"/>
			</g>
			<g>
				<path class="st3" d="M2699,801.4c-2.3,3.1-5.3,5.5-8.9,7.3c-3.6,1.8-7.4,2.7-11.3,2.8c-3.7,0.1-7.3-0.4-10.6-1.4
					c-3.3-1.1-6.3-2.7-8.8-4.8c-2.5-2.1-4.5-4.7-6-7.8c-1.5-3-2.3-6.5-2.4-10.3c-0.1-3.8,0.5-7.3,1.8-10.4c1.3-3.1,3.1-5.9,5.5-8.1
					c2.4-2.3,5.2-4.1,8.4-5.4c3.3-1.3,6.8-2,10.5-2.1c3.5-0.1,6.6,0.4,9.5,1.5c2.9,1.1,5.3,2.7,7.4,4.8c2,2.1,3.6,4.7,4.8,7.8
					c1.2,3.1,1.8,6.5,1.9,10.3l0.2,4.6l-34.8,1.2c0.7,2.8,2.1,5,4.1,6.6c2.1,1.6,4.5,2.4,7.5,2.3c2.5-0.1,4.5-0.7,6.2-1.8
					c1.7-1.1,3.1-2.6,4.3-4.3L2699,801.4z M2685.6,780.7c0-2.5-0.9-4.6-2.7-6.3c-1.8-1.7-4.1-2.5-6.8-2.4c-1.7,0.1-3.1,0.4-4.4,0.9
					c-1.2,0.6-2.3,1.3-3.2,2.1c-0.9,0.9-1.5,1.8-2,2.9c-0.5,1.1-0.7,2.2-0.7,3.4L2685.6,780.7z"/>
			</g>
		</g>
	</g>
	<g>
		<g>
			<path class="st0" d="M1122.8,917.1l-30.2,0.5c-2.1,0-3.8,1.8-3.7,3.9l0.4,24.5l-27.1,0.4c-2.1,0-3.8,1.8-3.7,3.9l0.4,29.2
				l-116.9,1.8c-4.3-14.9-17.3-25.9-33.1-27.1l-11.5-70.8c-6.7,3-14.2,4.7-21.9,4.8l-0.1,0c-2,0.1-3.9-0.3-6-0.5l12.3,75.2
				c-8.4,7-13.7,17.5-13.5,29.2c0.3,20.9,17.4,37.5,38.3,37.2c14.1-0.3,26.1-8.2,32.4-19.7l120.4-1.9l0.4,29.2
				c0,2.1,1.8,3.8,3.8,3.8l27.1-0.4l0.4,24.5c0,2,1.8,3.7,3.9,3.7l30.1-0.4c2.1,0,3.8-1.8,3.7-3.8l-2.2-143.4
				C1126.6,918.7,1124.9,917,1122.8,917.1z M873.7,765.5c34.7-0.5,63.3,26,66.5,60l77.8-29.7l29.3-80l-37.6-98.4L569,785.4
				l95.7,145.2l157-59.9c-7.9-10.7-12.8-23.8-13-38.1C808.1,796.1,837.3,766,873.7,765.5z M696.9,851.8c-15.4,5.8-32.4-1.8-38.2-17
				c-5.7-15.2,1.9-32.3,17.1-38.1c15.2-5.8,32.2,1.9,38,17.1C719.6,828.9,712,845.9,696.9,851.8z"/>
			<path class="st4" d="M565.6,825.9c-2.1-5.4-8.3-8.2-13.7-6.1l-29.7,11.3c-5.4,2.1-8.2,8.2-6.1,13.6l37.7,99
				c2.1,5.4,8.2,8.2,13.7,6.1l29.7-11.3c5.4-2.1,8.2-8.2,6.1-13.7L565.6,825.9z"/>
		</g>
		<g>
			<g>
				<path class="st0" d="M825.4,829.7c-0.2-6.5,0.8-12.7,3-18.7c2.2-5.9,5.5-11.1,9.7-15.5c4.2-4.4,9.2-8,15-10.6
					c5.8-2.6,12-4,18.6-4.2c6.6-0.2,12.9,0.8,18.9,3c6,2.2,11.2,5.4,15.7,9.5c4.5,4.2,8,9.1,10.7,14.9c2.6,5.8,4,11.9,4.3,18.4
					c0.2,6.5-0.8,12.7-3,18.7c-2.2,5.9-5.5,11.1-9.7,15.5c-4.2,4.4-9.2,8-15,10.6c-5.8,2.6-12,4-18.6,4.2c-6.6,0.2-12.9-0.8-18.9-3
					c-6-2.2-11.2-5.4-15.7-9.5c-4.5-4.1-8-9.1-10.7-14.9C827,842.4,825.6,836.2,825.4,829.7z"/>
			</g>
		</g>
	</g>
</g>
<g id="Security_Camera">
</g>
<g id="Facebook_Logo_Button">
	<g>
		<g>
			<path class="st5" d="M1985.8,727.7c-42.2,0-76.5,34.3-76.5,76.5s34.3,76.5,76.5,76.5s76.5-34.3,76.5-76.5
				C2062.3,761.9,2028.1,727.7,1985.8,727.7z M2005.6,804.2l-12.5,0l0,45.9h-17.2v-45.9h-11.5v-15.8l11.5,0l0-9.3
				c0-12.9,3.5-20.8,18.7-20.8h12.7v15.8h-7.9c-5.9,0-6.2,2.2-6.2,6.3l0,7.9h14.2L2005.6,804.2z"/>
		</g>
	</g>
</g>
<g id="Power_Button">
	<g>
		<g>
			<path class="st5" d="M2640.9,220.4c-35.3,0-64.1-28.7-64.1-64.1c0-20.6,10-40.1,26.8-52.1c4.5-3.2,10.9-2.2,14.1,2.3
				c3.3,4.5,2.2,10.9-2.3,14.1c-11.5,8.2-18.4,21.6-18.4,35.7c0,24.2,19.7,43.8,43.8,43.8s43.8-19.7,43.8-43.8
				c0-14.1-6.9-27.5-18.4-35.7c-4.5-3.2-5.6-9.6-2.3-14.1c3.2-4.5,9.6-5.6,14.1-2.3c16.8,12,26.8,31.5,26.8,52.1
				C2705,191.6,2676.2,220.4,2640.9,220.4z"/>
		</g>
		<g>
			<path class="st5" d="M2640.9,153.4c-5.6,0-10.1-4.5-10.1-10.1V86c0-5.6,4.5-10.1,10.1-10.1c5.6,0,10.1,4.5,10.1,10.1v57.3
				C2651,148.9,2646.5,153.4,2640.9,153.4z"/>
		</g>
	</g>
</g>
<g id="Hosting">
	<g>
		<g>
			<path class="st5" d="M2937.4,186.8h-78.8c-2.5,0-4.6,2-4.6,4.6v15.5c0,2.5,2.1,4.6,4.6,4.6h78.8c2.5,0,4.6-2,4.6-4.6v-15.5
				C2941.9,188.8,2939.9,186.8,2937.4,186.8z M2862.2,197.6c-1.6,0-2.8-1.3-2.8-2.8c0-1.6,1.3-2.8,2.8-2.8c1.6,0,2.8,1.3,2.8,2.8
				C2865,196.4,2863.7,197.6,2862.2,197.6z M2929.9,205.8H2910v-6.6h19.9L2929.9,205.8L2929.9,205.8z"/>
			<path class="st5" d="M2937.4,214h-78.8c-2.5,0-4.6,2-4.6,4.6v15.5c0,2.5,2.1,4.6,4.6,4.6h78.8c2.5,0,4.6-2,4.6-4.6v-15.5
				C2941.9,216,2939.9,214,2937.4,214z M2862.2,224.8c-1.6,0-2.8-1.3-2.8-2.8c0-1.6,1.3-2.8,2.8-2.8c1.6,0,2.8,1.3,2.8,2.8
				C2865,223.6,2863.7,224.8,2862.2,224.8z M2929.9,232.9H2910v-6.6h19.9L2929.9,232.9L2929.9,232.9z"/>
			<path class="st5" d="M2937.4,241.2h-78.8c-2.5,0-4.6,2-4.6,4.6v15.5c0,2.5,2.1,4.6,4.6,4.6h78.8c2.5,0,4.6-2,4.6-4.6v-15.5
				C2941.9,243.2,2939.9,241.2,2937.4,241.2z M2862.2,252c-1.6,0-2.8-1.3-2.8-2.8c0-1.6,1.3-2.8,2.8-2.8c1.6,0,2.8,1.3,2.8,2.8
				C2865,250.8,2863.7,252,2862.2,252z M2929.9,260.1H2910v-6.6h19.9L2929.9,260.1L2929.9,260.1z"/>
			<polygon class="st5" points="2911.5,280.7 2903.1,280.7 2903.1,268.5 2892.7,268.5 2892.7,280.7 2884.3,280.7 2884.3,283.9 
				2854.9,283.9 2854.9,294.4 2884.3,294.4 2884.3,297.6 2911.5,297.6 2911.5,294.4 2941,294.4 2941,283.9 2911.5,283.9 			"/>
			<path class="st5" d="M2944.5,161.7c-1.1-0.1-2.2-0.7-2.8-1.6c-6.3-8.5-16.5-13.8-27.2-13.8c-0.7,0-1.4,0-2,0.1
				c-0.9,0.1-1.9-0.2-2.6-0.8c-6.6-5-14.5-7.6-22.9-7.6c-14.9,0-28.2,8.6-34.4,21.7c-0.6,1.2-1.7,2-3,2.2
				c-16.4,2.3-29.1,16.5-29.1,33.6c0,16.3,11.5,29.9,26.9,33.1v-10.1c0-1.3,0.2-2.5,0.6-3.6c-8.2-2.7-14.1-10.4-14.1-19.5
				c0-11.3,9.2-20.5,20.5-20.5c0.6,0,1.1,0,1.7,0.1c3.3,0.3,6.2-1.9,7-5c2.8-11,12.6-18.7,23.9-18.7c6.5,0,12.6,2.5,17.3,7
				c1.6,1.6,3.8,2.2,6,1.8c1.4-0.3,2.8-0.4,4.2-0.4c7.9,0,15,4.5,18.5,11.6c1.2,2.5,3.9,4,6.7,3.7c0.7-0.1,1.4-0.1,2.1-0.1
				c11.3,0,20.5,9.2,20.5,20.5c0,9.1-5.9,16.8-14.1,19.5c0.4,1.1,0.6,2.3,0.6,3.6v10.1c15.3-3.2,26.9-16.9,26.9-33.1
				C2975.5,177.8,2961.8,163.2,2944.5,161.7z"/>
		</g>
	</g>
</g>
<g id="Computer_Web_Camera">
	<g>
		<g>
			<path id="path3622" class="st5" d="M2642.2,1493c-23,0-41.6-18.6-41.6-41.6c0-22.9,18.6-41.6,41.6-41.6c23,0,41.6,18.6,41.6,41.6
				C2683.7,1474.4,2665.1,1493,2642.2,1493z M2642.2,1379.8c-39.5,0-71.7,32.2-71.7,71.7c0,39.5,32.2,71.7,71.7,71.7
				c39.5,0,71.7-32.2,71.7-71.7C2713.9,1411.9,2681.7,1379.8,2642.2,1379.8"/>
			<path id="path3624" class="st5" d="M2634.4,1451.2c-4.3,0-7.8-3.5-7.8-7.8c0-4.3,3.5-7.8,7.8-7.8c4.3,0,7.8,3.5,7.8,7.8
				C2642.2,1447.7,2638.7,1451.2,2634.4,1451.2z M2642.2,1425.5c-14.4,0-26,11.6-26,26c0,14.4,11.6,26,26,26c14.4,0,26-11.6,26-26
				C2668.1,1437.1,2656.5,1425.5,2642.2,1425.5"/>
		</g>
	</g>
</g>
<g id="Smartphone_Call">
</g>
<g id="Video_Player_With_Timeline">
	<g>
		<path class="st5" d="M3170.6,1207.8h-129.2c-6.6,0-11.9,5.3-11.9,11.9v88.8c0,6.6,5.3,11.9,11.9,11.9h129.2
			c6.6,0,11.9-5.3,11.9-11.9v-88.8C3182.5,1213.2,3177.2,1207.8,3170.6,1207.8z M3174.6,1308.6c0,2.2-1.8,4-4,4h-129.2
			c-2.2,0-4-1.8-4-4v-88.8c0-2.2,1.8-4,4-4h129.2c2.2,0,4,1.8,4,4V1308.6z"/>
		<path class="st5" d="M3160.8,1295.4h-28.3v-1.1c0-2.2-1.8-4-4-4c-2.2,0-4,1.8-4,4v1.1h-73.3c-2.2,0-4,1.8-4,4s1.8,4,4,4h73.3v1
			c0,2.2,1.8,4,4,4c2.2,0,4-1.8,4-4v-1h28.3c2.2,0,4-1.8,4-4S3163,1295.4,3160.8,1295.4z"/>
		<path class="st5" d="M3106,1288.1c16.7,0,30.3-13.6,30.3-30.3c0-16.7-13.6-30.3-30.3-30.3c-16.7,0-30.3,13.6-30.3,30.3
			S3089.3,1288.1,3106,1288.1z M3106,1233.9c13.2,0,23.9,10.7,23.9,23.9s-10.7,23.9-23.9,23.9c-13.2,0-23.9-10.7-23.9-23.9
			S3092.8,1233.9,3106,1233.9z"/>
		<path class="st5" d="M3099.3,1275.4c0.9,0,1.9-0.3,2.8-0.9l19.2-12.6c1.5-1,2.4-2.5,2.4-4.1c0-1.6-0.9-3.1-2.4-4.1l-19.2-12.6
			c-0.9-0.6-1.9-0.9-2.8-0.9c-2.2,0-4.3,1.6-4.3,4.7v25.6C3095,1273.7,3097.2,1275.4,3099.3,1275.4z M3101.4,1248.2l14.6,9.6
			l-14.6,9.6V1248.2z"/>
	</g>
</g>
<g id="Twitter">
	<g>
		<path class="st5" d="M3252,972.2c-42.2,0-76.5,34.3-76.5,76.5c0,42.2,34.3,76.5,76.5,76.5c42.2,0,76.5-34.3,76.5-76.5
			C3328.5,1006.4,3294.3,972.2,3252,972.2z M3290.1,1031.5l0.1,2.4c0,24.9-18.9,53.6-53.6,53.6c-10.6,0-20.5-3.1-28.9-8.5
			c1.5,0.2,3,0.3,4.5,0.3c8.8,0,16.9-3,23.4-8.1c-8.2-0.2-15.2-5.6-17.6-13.1c1.2,0.2,2.3,0.3,3.5,0.3c1.7,0,3.4-0.2,5-0.7
			c-8.6-1.7-15.1-9.3-15.1-18.5v-0.2c2.5,1.4,5.4,2.3,8.5,2.4c-5-3.4-8.4-9.1-8.4-15.7c0-3.5,0.9-6.7,2.5-9.5
			c9.3,11.4,23.2,18.9,38.8,19.7c-0.3-1.4-0.5-2.8-0.5-4.3c0-10.4,8.4-18.8,18.8-18.8c5.4,0,10.3,2.3,13.8,5.9
			c4.3-0.9,8.3-2.4,12-4.6c-1.4,4.4-4.4,8.1-8.3,10.4c3.8-0.4,7.4-1.5,10.8-3C3297,1025.5,3293.8,1028.9,3290.1,1031.5z"/>
	</g>
</g>
<g id="Time-lapse">
	<g>
		<g id="timelapse_1_">
			<path class="st5" d="M3319.6,773.9c-7.5-8.2-18.5-12.3-28.8-12.3v41.1l-28.8,28.8c15.8,15.8,41.8,15.8,58.2,0
				C3336,815.7,3336,789.6,3319.6,773.9z M3290.8,734.1c-37.7,0-68.5,30.8-68.5,68.5s30.8,68.5,68.5,68.5
				c37.7,0,68.5-30.8,68.5-68.5S3328.5,734.1,3290.8,734.1z M3290.8,857.4c-30.1,0-54.8-24.7-54.8-54.8s24.7-54.8,54.8-54.8
				s54.8,24.7,54.8,54.8S3320.9,857.4,3290.8,857.4z"/>
		</g>
	</g>
</g>
<g id="Business_Bars_Graphic">
	<g>
		<path class="st5" d="M3300.2,606.9h-113.7V503c0-1.8-1.5-3.3-3.3-3.3c-1.8,0-3.3,1.5-3.3,3.3v107.1c0,1.8,1.5,3.3,3.3,3.3h117
			c1.8,0,3.3-1.5,3.3-3.3C3303.5,608.3,3302,606.9,3300.2,606.9z"/>
		<path class="st5" d="M3189.6,598.2c-0.2,0-0.3,0.1-0.3,0.3c0,0.2,0.1,0.3,0.3,0.3h5.3c0,0.8,0.7,1.5,1.5,1.5h20.8
			c0.8,0,1.5-0.7,1.5-1.5h12.3c0,0.8,0.7,1.5,1.5,1.5h20.8c0.8,0,1.5-0.7,1.5-1.5h12.3c0,0.8,0.7,1.5,1.5,1.5h20.8
			c0.8,0,1.5-0.7,1.5-1.5h2.9c0.2,0,0.3-0.1,0.3-0.3c0-0.2-0.1-0.3-0.3-0.3h-2.9v-19.1h2.9c0.2,0,0.3-0.1,0.3-0.3
			c0-0.2-0.1-0.3-0.3-0.3h-2.9v-19.1h2.9c0.2,0,0.3-0.1,0.3-0.3c0-0.2-0.1-0.3-0.3-0.3h-2.9v-10.5c0-0.8-0.7-1.5-1.5-1.5h-20.8
			c-0.8,0-1.5,0.7-1.5,1.5v10.5h-12.3v-19.1h39c0.2,0,0.3-0.1,0.3-0.3s-0.1-0.3-0.3-0.3h-39V520h39c0.2,0,0.3-0.1,0.3-0.3
			s-0.1-0.3-0.3-0.3h-39v-7.3c0-0.8-0.7-1.5-1.5-1.5h-20.8c-0.8,0-1.5,0.7-1.5,1.5v7.3h-41.5c-0.2,0-0.3,0.1-0.3,0.3
			s0.1,0.3,0.3,0.3h41.5v19.1h-41.5c-0.2,0-0.3,0.1-0.3,0.3s0.1,0.3,0.3,0.3h41.5v19.1h-12.3v-10.5c0-0.8-0.7-1.5-1.5-1.5h-20.8
			c-0.8,0-1.5,0.7-1.5,1.5v10.5h-5.3c-0.2,0-0.3,0.1-0.3,0.3c0,0.2,0.1,0.3,0.3,0.3h5.3v19.1h-5.3c-0.2,0-0.3,0.1-0.3,0.3
			c0,0.2,0.1,0.3,0.3,0.3h5.3v19.1H3189.6z M3267.2,598.2h-12.3v-19.1h12.3V598.2z M3267.2,559.5v19.1h-12.3v-19.1H3267.2z
			 M3218.7,559.5h12.3v19.1h-12.3V559.5z M3218.7,579.2h12.3v19.1h-12.3V579.2z"/>
	</g>
</g>
<g id="Wristwatch_App">
	<g>
		<path class="st5" d="M2210.6,301.5h-1.3l-9.9-29.7c-1.1-3.2-4.5-5.7-7.9-5.7h-35.8c-3.4,0-6.8,2.4-7.9,5.7l-9.9,29.7h-1.3
			c-5.6,0-10.1,4.5-10.1,10.1v67.8c0,5.6,4.5,10.1,10.1,10.1h1.5l9.6,24.2c1.2,3.1,4.6,5.4,8,5.4h35.8c3.4,0,6.7-2.3,8-5.4l9.6-24.2
			h1.5c5.6,0,10.1-4.5,10.1-10.1v-67.8C2220.7,306,2216.1,301.5,2210.6,301.5z M2155.9,274.7h35.4l8.9,26.8h-53.2L2155.9,274.7z
			 M2191.4,410.3c0,0-0.1,0.1-0.1,0.1h-35.5c0,0-0.1-0.1-0.1-0.1l-8.3-20.9h52.4L2191.4,410.3z M2212,379.3c0,0.8-0.7,1.4-1.4,1.4
			h-4.5c0,0,0,0,0,0h-65c0,0,0,0,0,0h-4.5c-0.8,0-1.4-0.7-1.4-1.4v-67.8c0-0.8,0.7-1.4,1.4-1.4h4.4c0,0,0,0,0,0h65.2c0,0,0,0,0,0
			s0,0,0,0h4.4c0.8,0,1.4,0.7,1.4,1.4C2212,311.5,2212,379.3,2212,379.3z"/>
		<path class="st5" d="M2163.9,317.3h-14.7c-3.5,0-6.3,2.8-6.3,6.3v12.9c0,3.5,2.8,6.3,6.3,6.3h14.7c3.5,0,6.3-2.8,6.3-6.3v-12.9
			C2170.2,320.1,2167.4,317.3,2163.9,317.3z M2163.3,335.9h-13.6v-11.8h13.6V335.9z"/>
		<path class="st5" d="M2197.9,317.3h-14.7c-3.5,0-6.3,2.8-6.3,6.3v12.9c0,3.5,2.8,6.3,6.3,6.3h14.7c3.5,0,6.3-2.8,6.3-6.3v-12.9
			C2204.3,320.1,2201.4,317.3,2197.9,317.3z M2197.3,335.9h-13.6v-11.8h13.6V335.9z"/>
		<path class="st5" d="M2163.9,348h-14.7c-3.5,0-6.3,2.8-6.3,6.3v12.9c0,3.5,2.8,6.3,6.3,6.3h14.7c3.5,0,6.3-2.8,6.3-6.3v-12.9
			C2170.2,350.8,2167.4,348,2163.9,348z M2163.3,366.7h-13.6v-11.8h13.6V366.7z"/>
		<path class="st5" d="M2197.9,348h-14.7c-3.5,0-6.3,2.8-6.3,6.3v12.9c0,3.5,2.8,6.3,6.3,6.3h14.7c3.5,0,6.3-2.8,6.3-6.3v-12.9
			C2204.3,350.8,2201.4,348,2197.9,348z M2197.3,366.7h-13.6v-11.8h13.6V366.7z"/>
	</g>
</g>
<g id="Presentation_Materials_With_Image_And_Text">
	<g>
		<g>
			<path class="st5" d="M2455.2,144.8c0-4.1-3.3-7.4-7.4-7.4h-115.2c-4.1,0-7.4,3.3-7.4,7.4v98c0,4.1,3.3,7.4,7.4,7.4h115.2
				c4.1,0,7.4-3.3,7.4-7.4L2455.2,144.8L2455.2,144.8z M2446.7,241.7h-113v-95.6h113L2446.7,241.7L2446.7,241.7z"/>
			<path class="st5" d="M2345.2,231.8h48.7c2.3,0,4.2-1.8,4.2-4.1c0-2.3-1.9-4.1-4.2-4.1h-48.7c-2.3,0-4.2,1.8-4.2,4.1
				C2341,230,2342.9,231.8,2345.2,231.8z"/>
			<path class="st5" d="M2434.2,223.5h-22c-2.3,0-4.2,1.8-4.2,4.1c0,2.3,1.9,4.1,4.2,4.1h22c2.3,0,4.2-1.8,4.2-4.1
				C2438.4,225.3,2436.6,223.5,2434.2,223.5z"/>
			<path class="st5" d="M2345.2,217.6h48.7c2.3,0,4.2-1.8,4.2-4.1c0-2.3-1.9-4.1-4.2-4.1h-48.7c-2.3,0-4.2,1.8-4.2,4.1
				C2341,215.8,2342.9,217.6,2345.2,217.6z"/>
			<path class="st5" d="M2434.2,209.3h-22c-2.3,0-4.2,1.8-4.2,4.1c0,2.3,1.9,4.1,4.2,4.1h22c2.3,0,4.2-1.8,4.2-4.1
				C2438.4,211.1,2436.6,209.3,2434.2,209.3z"/>
			<path class="st5" d="M2416.7,157.6c-0.6-1-1.6-1.7-2.8-1.8c-1.2-0.1-2.3,0.4-3,1.3l-17.7,22.8l-15.4-14.9c-0.7-0.6-1.6-1-2.5-1
				c-0.9,0-1.8,0.4-2.5,1.1l-31.4,32.8h97.5L2416.7,157.6z"/>
		</g>
	</g>
</g>
<g id="Android_Character_Figure">
	<g>
		<path class="st5" d="M2099.4,1038.8c-4.8,0-8.7,3.9-8.7,8.7v35c0,4.8,3.9,8.7,8.7,8.7s8.7-3.9,8.7-8.7v-35
			C2108.1,1042.8,2104.2,1038.8,2099.4,1038.8z M1994.5,1038.8c-4.8,0-8.7,3.9-8.7,8.7v35c0,4.8,3.9,8.7,8.7,8.7s8.7-3.9,8.7-8.7
			v-35C2003.3,1042.8,1999.3,1038.8,1994.5,1038.8z M2007.6,1095.6c0,7.2,5.9,13.1,13.1,13.1h4.4v17.5c0,4.8,3.9,8.7,8.7,8.7
			s8.7-3.9,8.7-8.7v-17.5h8.7v17.5c0,4.8,3.9,8.7,8.7,8.7s8.7-3.9,8.7-8.7v-17.5h4.4c7.2,0,13.1-5.9,13.1-13.1v-48.1h-78.6V1095.6z
			 M2063.2,1007.4l5.5-10.6c0.3-0.5,0.1-1.2-0.5-1.5c-0.5-0.3-1.2-0.1-1.5,0.5l-5.6,10.8c-4.4-1.7-9.2-2.6-14.2-2.6
			c-5,0-9.8,0.9-14.2,2.6l-5.6-10.8c-0.3-0.5-0.9-0.7-1.5-0.5s-0.7,0.9-0.5,1.5l5.5,10.6c-12.4,5.6-21.3,17.4-22.9,31.5h78.2
			C2084.5,1024.8,2075.5,1013,2063.2,1007.4z M2029.5,1032.1c-3.5,0-6.3-2.8-6.3-6.3c0-3.5,2.8-6.3,6.3-6.3c3.5,0,6.3,2.8,6.3,6.3
			C2035.8,1029.2,2033,1032.1,2029.5,1032.1z M2064.4,1032.1c-3.5,0-6.3-2.8-6.3-6.3c0-3.5,2.8-6.3,6.3-6.3s6.3,2.8,6.3,6.3
			C2070.8,1029.2,2067.9,1032.1,2064.4,1032.1z"/>
	</g>
</g>
<g id="Favorite_Heart_Button">
	<g>
		<g id="favorite">
			<path class="st5" d="M2189.1,1356l-10.8-10.8c-40.2-35.6-66.5-59.6-66.5-89c0-24,18.6-42.6,42.6-42.6c13.2,0,26.3,6.2,34.8,16.2
				c8.5-10.1,21.7-16.2,34.8-16.2c24,0,42.6,18.6,42.6,42.6c0,29.4-26.3,53.4-66.5,89L2189.1,1356z"/>
		</g>
	</g>
</g>
<g id="Hashtag_Symbol">
	<g>
		<g id="hash_1_">
			<path class="st5" d="M2447.5,1394.3v-13.8h-17.2l3.4-27.6h-13.8l-3.4,27.6h-27.5l3.4-27.6h-13.8l-3.4,27.6h-24.1v13.8h22.4
				l-3.4,27.6h-18.9v13.8h17.2l-3.4,27.6h13.8l3.4-27.6h27.6l-3.5,27.6h13.8l3.4-27.6h24.1v-13.8h-22.4l3.4-27.6H2447.5z
				 M2411.3,1421.9h-27.6l3.4-27.6h27.5L2411.3,1421.9z"/>
		</g>
	</g>
</g>
<g id="Smartphone_Call_1_">
	<g>
		<path class="st5" d="M2911.7,1315.8h-70.6c-5.9,0-10.7,4.8-10.7,10.7v137c0,5.9,4.8,10.7,10.7,10.7h70.6c5.9,0,10.7-4.8,10.7-10.7
			v-137C2922.4,1320.6,2917.6,1315.8,2911.7,1315.8z M2865.1,1323.5h22.6c0.7,0,1.3,0.6,1.3,1.3c0,0.7-0.6,1.3-1.3,1.3h-22.6
			c-0.7,0-1.3-0.6-1.3-1.3C2863.8,1324.1,2864.4,1323.5,2865.1,1323.5z M2876.4,1468.9c-3,0-5.3-2.4-5.3-5.4c0-3,2.4-5.3,5.3-5.3
			c3,0,5.3,2.4,5.3,5.3C2881.7,1466.5,2879.3,1468.9,2876.4,1468.9z M2915,1454.4h-77.1v-121.6h77.1V1454.4z"/>
	</g>
</g>
<g id="Share">
	<g>
		<path class="st5" d="M3129.6,377.1c-6.7,0-12.5,3.2-16.4,8l-35.6-18.2c0.5-1.7,0.8-3.5,0.8-5.4c0-2.1-0.4-4-1-5.9l35.5-18.1
			c3.8,5.1,9.9,8.4,16.7,8.4c11.6,0,21-9.4,21-21c0-11.6-9.4-21-21-21c-11.6,0-21,9.4-21,21c0,1.9,0.3,3.7,0.8,5.4l-35.6,18.2
			c-3.8-4.9-9.7-8.1-16.4-8.1c-11.6,0-21,9.4-21,21s9.4,21,21,21c6.9,0,12.9-3.3,16.7-8.4l35.5,18.1c-0.6,1.9-1,3.8-1,5.9
			c0,11.6,9.4,21,21,21c11.6,0,21-9.4,21-21C3150.6,386.5,3141.2,377.1,3129.6,377.1z"/>
	</g>
</g>
<g id="Send_Symbol">
	<g>
		<g>
			<path class="st5" d="M1971.5,535.2c-2.3,0.9-3.9,2.9-4.2,5.3c-0.3,2.4,0.7,4.8,2.7,6.2l21.6,15.7l76.6-60.2l-67.7,66.7l29.5,21.4
				c1.9,1.4,4.3,1.8,6.5,1.1c2.2-0.7,4-2.4,4.8-4.5l31.5-86.3c0.3-0.9,0.1-1.9-0.6-2.5c-0.7-0.7-1.6-0.9-2.5-0.5L1971.5,535.2z"/>
			<path class="st5" d="M1986.4,567.7l0.2,1l4.2,22.9c0.3,1.7,1.4,3.1,3,3.8c1.6,0.7,3.4,0.5,4.9-0.4c5.8-3.8,13.4-8.7,13.2-9
				L1986.4,567.7z"/>
		</g>
	</g>
</g>
<g id="Play_Arrow">
	<g>
		<path class="st5" d="M2897.2,1388.8l-29.5-17c-1.2-0.7-2.7,0.2-2.7,1.6v34.1c0,1.4,1.5,2.3,2.7,1.6l29.5-17
			C2898.4,1391.2,2898.4,1389.5,2897.2,1388.8z"/>
	</g>
</g>
</svg>
